# Blender v2.77 (sub 0) OBJ File: 'window old.blend'
# www.blender.org
mtllib window old.mtl
o Cube_Cube.001
v -0.059500 1.150430 0.875482
v 0.037724 1.150299 0.875482
v -0.059500 1.150430 -0.876375
v 0.037723 1.150299 -0.876375
v -0.062606 -1.152970 0.875482
v 0.034618 -1.153101 0.875482
v -0.062606 -1.152970 -0.876375
v 0.034617 -1.153101 -0.876375
v 0.040958 1.050324 0.731434
v 0.040960 1.050324 -0.732327
v 0.038129 -1.049078 -0.732327
v 0.038129 -1.049078 0.731434
v 0.040958 1.050324 0.066965
v 0.038129 -1.049078 0.047617
v 0.038129 -1.049078 -0.063115
v 0.040960 1.050324 -0.047894
v -0.025691 1.050414 -0.047894
v -0.025691 1.050414 -0.732327
v -0.028522 -1.048988 -0.732327
v -0.028522 -1.048988 0.047617
v -0.028522 -1.048988 0.731434
v -0.025691 1.050414 0.731434
v -0.025691 1.050414 0.066965
v -0.028522 -1.048988 -0.063115
vt 0.2682 0.2479
vt 0.2682 0.8993
vt 0.2501 0.8993
vt 0.2501 0.2479
vt 0.5476 0.9405
vt 0.5476 0.2562
vt 0.5642 0.2563
vt 0.5642 0.9406
vt 0.4300 0.2479
vt 0.4300 0.8993
vt 0.4118 0.8993
vt 0.4118 0.2479
vt 0.5476 0.2562
vt 0.5476 0.9405
vt 0.5310 0.9406
vt 0.5310 0.2563
vt 0.2006 0.1116
vt 0.5592 0.1116
vt 0.5592 0.9503
vt 0.2006 0.9503
vt 0.3975 0.8088
vt 0.4031 0.1984
vt 0.4313 0.2496
vt 0.4292 0.4828
vt 0.4288 0.5214
vt 0.4266 0.7596
vt 0.5431 0.0954
vt 0.5431 0.9599
vt 0.5245 0.9599
vt 0.5245 0.0954
vt 0.5342 0.9836
vt 0.5342 0.0514
vt 0.5631 0.0918
vt 0.5631 0.9415
vt 0.3701 0.2269
vt 0.3741 0.8503
vt 0.3460 0.7997
vt 0.3445 0.5633
vt 0.3443 0.5224
vt 0.3427 0.2789
vt 0.5600 0.0289
vt 0.5600 0.9611
vt 0.5325 0.9190
vt 0.5325 0.0694
vt 0.9800 0.9916
vt 0.7871 0.9916
vt 0.7925 0.0097
vt 0.9800 0.0097
vt 0.3928 0.1088
vt 0.3879 0.9339
vt 0.3602 0.9339
vt 0.3640 0.1088
vt 0.4453 0.1769
vt 0.4453 0.5966
vt 0.4287 0.5966
vt 0.4287 0.1769
vt 0.7871 0.0097
vt 0.7828 0.9916
vt 0.5940 0.9916
vt 0.5940 0.0097
vt 0.4189 0.7642
vt 0.4189 0.2278
vt 0.4403 0.2278
vt 0.4403 0.7642
vt 0.3954 0.6061
vt 0.3954 0.1769
vt 0.4120 0.1769
vt 0.4120 0.6061
vt 0.5379 0.9622
vt 0.5379 0.1560
vt 0.5520 0.1560
vt 0.5520 0.9622
vt 0.5661 0.1560
vt 0.5661 0.9622
vt 0.5520 0.9622
vt 0.5520 0.1560
vt 0.4874 0.0954
vt 0.4874 0.9599
vt 0.4689 0.9599
vt 0.4689 0.0954
vt 0.3974 0.2278
vt 0.3974 0.7798
vt 0.3760 0.7798
vt 0.3760 0.2278
vn 0.0013 1.0000 0.0000
vn 0.0000 -0.0000 -1.0000
vn -0.0013 -1.0000 -0.0000
vn -0.0000 0.0000 1.0000
vn -1.0000 0.0013 0.0000
vn 0.9994 -0.0337 -0.0000
vn 0.9997 -0.0013 -0.0234
vn 0.9995 0.0323 0.0000
vn 0.9997 -0.0013 0.0234
vn 1.0000 -0.0013 -0.0000
vn 0.0014 1.0000 -0.0000
vn -0.0014 -1.0000 -0.0000
vn 0.0000 0.0072 -1.0000
vn -0.0000 -0.0092 1.0000
usemtl Material.004
s off
f 2/1/1 4/2/1 3/3/1 1/4/1
f 4/5/2 8/6/2 7/7/2 3/8/2
f 8/9/3 6/10/3 5/11/3 7/12/3
f 6/13/4 2/14/4 1/15/4 5/16/4
f 1/17/5 3/18/5 7/19/5 5/20/5
f 6/21/6 8/22/6 11/23/6 15/24/6 14/25/6 12/26/6
f 9/27/2 12/28/2 21/29/2 22/30/2
f 8/31/7 4/32/7 10/33/7 11/34/7
f 4/35/8 2/36/8 9/37/8 13/38/8 16/39/8 10/40/8
f 2/41/9 6/42/9 12/43/9 9/44/9
f 21/45/10 20/46/10 23/47/10 22/48/10
f 13/49/10 14/50/10 15/51/10 16/52/10
f 15/53/11 11/54/11 19/55/11 24/56/11
f 17/57/10 24/58/10 19/59/10 18/60/10
f 13/61/12 9/62/12 22/63/12 23/64/12
f 10/65/12 16/66/12 17/67/12 18/68/12
f 16/69/13 15/70/13 24/71/13 17/72/13
f 11/73/4 10/74/4 18/75/4 19/76/4
f 14/77/14 13/78/14 23/79/14 20/80/14
f 12/81/11 14/82/11 20/83/11 21/84/11
